<svg viewBox="0 0 1402 380" fill="none" stroke-linecap="square" stroke-miterlimit="10" xmlns="http://www.w3.org/2000/svg"><clipPath id="a"><path d="M0 0h1402v380H0V0z"/></clipPath><g clip-path="url(#a)"><path d="M0 0h1402v380H0z"/><path d="M0 0h1398v381H0z"/><path fill="#fff" d="M23 132q-5 0-7-3l-2-6V39q0-4 2-7t7-3q5 0 6 3 2 3 2 7v32h25V39q0-4 2-7t7-3q5 0 6 3 2 3 2 7v84l-2 6q-2 3-6 3-5 0-7-3l-2-6V88H31v35l-2 6q-2 3-6 3zm85 0q-5 0-7-3t-2-7V47H85q-4 0-6-2-3-2-3-6t3-6q2-2 6-2h45q4 0 7 2 2 2 2 6t-2 6q-3 2-7 2h-14v75l-1 7q-2 3-7 3zm41 0q-4 0-6-2l-1-6V42q0-5 2-9 3-4 9-4t8 3l3 8 8 64 7-64 4-8q2-3 7-3 7 0 9 4 3 4 3 9v82l-2 6q-2 2-6 2t-6-2l-2-6 3-77-10 78q0 3-2 5t-5 2q-4 0-6-2l-2-5-10-78 3 77-2 6q-1 2-6 2zm70-1q-5 0-9-4t-4-9V39q0-4 2-7t7-3q5 0 7 3t2 7v74l1 1h32q4 0 7 2 3 1 3 6t-3 7q-3 2-7 2h-38zm59 11q-5 0-5-6l2-4 3-3 3-2 1-3h2l1 2q-6 1-10-2-3-3-3-9 0-11 11-11 7 0 10 4t3 10q0 10-7 17l-4 4q-3 3-7 3zm88-10q-9 0-15-3-6-4-9-9l-6-12-2-14-1-13 1-13 2-14q2-7 6-12 3-6 9-10 6-3 15-3 7 0 13 4 7 4 10 10 4 6 4 13 0 8-9 8-4 0-6-2l-3-6-2-5-2-4-6-1q-4 0-6 2-3 2-4 6l-3 10-1 10v16l1 9 3 8q1 4 4 7 2 2 6 2t5-2l4-4 2-7 3-6q2-2 7-2 8 0 8 8l-2 8-3 8q-4 7-10 10t-13 3zm62 0q-8 0-15-3-7-4-12-12l-3-6-1-8q0-9 9-9 4 0 6 3l3 5 2 5 1 5 4 3 7 1q5 0 8-4 4-4 4-9t-2-8q-2-3-6-5l-8-4-9-4-8-6q-5-3-7-8-3-5-3-12 0-8 4-14 4-7 10-10 7-3 15-3 7 0 13 3 7 3 12 8 4 6 4 14 0 9-9 9-4 0-6-3l-3-5-2-5-3-4-7-1q-5 0-8 3-3 2-3 8 0 3 2 5 2 3 6 5l8 4 9 4 9 6 7 9q2 6 2 13 0 14-8 22t-22 8zm64 0q-8 0-15-3-7-4-12-12l-3-6-1-8q0-9 9-9 4 0 6 3l3 5 2 5 1 5 4 3 7 1q5 0 8-4 4-4 4-9t-2-8q-2-3-6-5l-8-4-9-4-8-6q-5-3-7-8-3-5-3-12 0-8 4-14 4-7 10-10 7-3 15-3 7 0 13 3 7 3 12 8 4 6 4 14 0 9-9 9-4 0-6-3l-3-5-2-5-3-4-7-1q-5 0-8 3-3 2-3 8 0 3 2 5 2 3 6 5l8 4 9 4 9 6 7 9q2 6 2 13 0 14-8 22t-22 8zm42 10q-5 0-5-6l2-4 3-3 3-2 1-3h2l1 2q-6 1-10-2-3-3-3-9 0-11 11-11 7 0 10 4t3 10q0 10-7 17l-4 4q-3 3-7 3zm86-10q-8 0-15-3t-12-10q-4-6-4-14 0-9 9-9 4 0 6 3l3 6 2 5 4 4q2 2 7 2t7-3q3-2 4-7l1-9V39q0-4 2-7t7-3q5 0 6 3 2 3 2 7v58q0 10-3 18-2 8-9 13-6 4-17 4zm57 0q-10 0-16-5-7-6-7-16 0-8 3-13t8-8l11-4 12-1 8-1-1-5q0-3-2-4l-8-1-6 1-4 4-3 4q-2 2-7 2l-6-1q-2-2-2-6l1-5 3-5q4-5 11-8 6-2 13-2t14 3q6 2 10 8 4 5 4 14v41q0 8-9 8-4 0-6-2l-2-6q0-2 2-2-2 4-8 7t-13 3zm1-15 7-1 6-3 3-4 2-4v-7h-4l-8 1-7 2-5 4q-2 2-2 5 0 4 2 6l6 1zm70 15q-9 0-12-8l-18-54-1-2v-2q0-4 2-6l6-2q4 0 6 3l2 4 15 43 14-43 3-5q2-2 6-2 3 0 5 2 3 2 3 6l-2 5-3 10-5 13-4 13-4 11-2 6q-3 8-11 8zm57 0q-10 0-16-5-7-6-7-16 0-8 3-13t8-8l11-4 12-1 8-1-1-5q0-3-2-4l-8-1-6 1-4 4-3 4q-2 2-7 2l-6-1q-2-2-2-6l1-5 3-5q4-5 11-8 6-2 13-2t14 3q6 2 10 8 4 5 4 14v41q0 8-9 8-4 0-6-2l-2-6q0-2 2-2-2 4-8 7t-13 3zm1-15 7-1 6-3 3-4 2-4v-7h-4l-8 1-7 2-5 4q-2 2-2 5 0 4 2 6l6 1zm70 15q-8 0-15-3-7-4-12-12l-3-6-1-8q0-9 9-9 4 0 6 3l3 5 2 5 1 5 4 3 7 1q5 0 8-4 4-4 4-9t-2-8q-2-3-6-5l-8-4-9-4-8-6q-5-3-7-8-3-5-3-12 0-8 4-14 4-7 10-10 7-3 15-3 7 0 13 3 7 3 12 8 4 6 4 14 0 9-9 9-4 0-6-3l-3-5-2-5-3-4-7-1q-5 0-8 3-3 2-3 8 0 3 2 5 2 3 6 5l8 4 9 4 9 6 7 9q2 6 2 13 0 14-8 22t-22 8zm65 0q-11 0-18-5-7-6-10-14-3-9-3-18 0-10 3-18t10-13q7-6 18-6 6 0 11 2l9 5 5 7q2 3 2 8 0 8-8 8-4 0-6-2l-3-4-2-4-3-3-5-1q-5 0-7 2-3 1-4 4-2 3-2 7l-1 8 1 8q0 4 2 7 1 3 4 5t7 2q4 0 6-2l3-3 2-5 3-5q2-2 6-2 8 0 8 8 0 5-2 9l-5 7q-4 5-10 6-5 2-11 2zm52 0q-5 0-7-3l-1-6V68l1-7q2-3 7-3t6 3l2 6q0 3-2 3 1-4 7-8 5-4 12-4l6 2q2 2 2 6 0 5-3 7l-7 2-7 2-6 5q-2 2-2 6v35q0 4-2 6-2 3-6 3zm75-82q-11 0-11-10 0-11 11-11 4 0 7 3t3 8q0 10-10 10zm0 82q-5 0-7-3l-2-6V69q0-4 2-7t7-3q4 0 6 3t2 7v54l-2 6q-2 3-6 3zm43 15q-4 0-6-3l-2-6V67q0-9 8-9 5 0 7 3 2 2 2 5t-2 3q0-5 5-8t12-3q7 0 12 3 6 4 9 9t4 11l2 12-1 12-5 12q-3 5-8 9-5 3-13 3-7 0-12-3t-4-4l1 16-2 6q-2 3-7 3zm22-33q4 0 6-2l4-5 1-6 1-8-1-7-1-6-4-5-6-1-6 2-5 5q-2 3-2 7v12q0 4 2 7l5 5 6 2zm70 17q-7 0-11-3-4-2-5-6-2-4-2-11V76h-6l-6-2q-3-2-3-6 0-5 3-6l6-2h6V46q0-4 2-7t7-3q5 0 6 3 2 3 2 7v14h8l6 2q3 1 3 6 0 4-3 6l-6 2h-8v38l2 1h4l7 1q3 1 3 7 0 4-2 6t-6 2h-7zm115 7-7-2-6-2q-9-3-17-9-8-5-12-13-5-8-5-19t5-20q5-9 12-16l9-7-53 3-7-1q-3-2-3-7t3-7l6-2 97-3q8 0 8 8 0 4-3 5l-5 3-5 1h-4q-7 1-15 5-7 3-13 9-7 5-10 12-4 7-4 15 0 6 2 11l7 8 10 6 11 4 6 2q3 2 3 6 0 10-10 10zm9-52q-7 0-7-8V66q0-7 7-7t7 7v12q0 8-7 8zm14 0q-7 0-7-8V66q0-7 7-7t7 7v12q0 8-7 8zM90 347q-4 0-6-3t-2-7v-79h-7l-1 3-4 6-5 7-5 6-5 2q-5 0-6-3-2-2-2-6l1-4 2-3q7-8 11-17l9-18 3-5q1-2 5-2l6 1q3 2 3 6l-1 5-3 6q-1 3-3 2l48-2q4 0 6 2 3 2 3 6 0 5-3 6-2 2-6 2H98v13h23q4 0 7 2 2 2 2 6 0 5-2 6-3 2-7 2H98v13h28l6 2q3 2 3 6 0 5-3 6l-6 2H98v21l-1 7q-2 3-7 3zm-51 0q-4 0-6-3l-2-6 3-60q2 1 0 4l-3 6-5 6-4 2q-5 0-6-2l-2-6 1-4 2-4 2-3q7-10 12-22l9-23 2-5q2-3 7-3l6 2q2 1 2 6l-1 5-3 8-4 7-2 5v81l-1 6q-2 3-7 3zm149-8q-9 0-9-9 0-5 3-7l7-1 11-2 11-3 10-4q5-3 7-7 3-4 3-10t-3-9q-3-4-8-5l-10-1q-10 0-19 2-10 1-19 4l-2 1h-3q-8 0-8-9 0-4 3-6l5-2 21-5 21-2q10 0 19 3t15 10q5 7 5 19 0 10-4 17t-10 12q-7 5-15 8l-16 4q-7 2-15 2zm98 2q-9 0-9-9l1-4 2-5 2-3 12-32 8-30h-18q-4 0-7-2-3-1-3-6t3-6q3-2 7-2h22v-2l1-6 3-5q2-3 6-3 8 0 8 8l-1 6-1 3 31-1 6 2q3 1 3 6t-3 6l-6 2-35-2h2l-2 8-4 14-5 16-5 16-6 15q-2 7-6 11-3 5-6 5zm49-56q-7 0-7-7 0-4 4-7l8-3 10-2 10-1h14q4 0 7 2 4 2 4 7t-3 7l-7 1h-10l-8 1h-8l-9 2h-5zm27 56-10-1-12-1-10-4q-5-3-8-8t-3-11v-5l2-7 3-5q2-3 6-3 3 0 5 2 3 2 3 5l-1 6-2 6 2 4 5 2 8 2 8 1h5l8-1 8-1q4 0 6 2 3 2 3 7 0 4-4 7l-8 2-8 1h-6zm105 1-15-1-13-5q-5-4-9-10-3-6-3-15v-10l1-6h-16l-7-1q-2-2-2-7 0-4 2-6 3-2 7-2h17l2-18h2l-17 3q-4 0-6-2-3-2-3-6 0-5 3-7 2-2 6-2h16l2-9v-5l3-5q2-2 6-2l6 2q2 2 2 6l-2 13h28l6 2q3 2 3 7 0 4-3 6l-6 2h-30l-1 8v7h32q4 0 7 2t3 6q0 5-3 7l-7 1h-34v4l-1 7q0 8 3 12t9 6q5 2 12 2 8 0 15-3 6-2 10-7t4-13l-1-8-3-8-2-6q0-4 3-6 2-2 6-2t7 4q3 4 4 9l2 10 1 7q0 13-7 22-6 9-16 13t-23 4zm125-4q-9 0-9-9 0-5 3-6l7-2 5-1 6-2q11-5 17-13t6-20q0-9-4-16-3-6-10-11-6-4-15-5v-2l-2 2 1-2-2 22q-2 11-7 22l-5 10-6 10q-4 6-10 9-5 4-12 4-6 0-11-4t-8-9l-4-11-1-11q0-13 5-23 4-11 13-18 8-8 19-12t23-4q15 0 27 6t19 17q7 11 7 27 0 31-28 45l-11 5-13 2zm-36-28 4-2 4-4 4-5 2-5q5-10 8-21l4-20q-8 1-16 6-9 6-14 14-4 9-4 20v5l2 6 2 4 4 2zm159 37q-4 0-6-3l-1-6v-17q1 1-4 4l-10 6-11 6-11 5-10 2q-8 0-8-9 0-3 2-5l5-2q12-3 23-8 11-4 14-7h-35l-6-1q-2-2-2-6t3-5q2-2 5-2h45v-2h-25q-6 0-10-2-3-3-3-10l2-29q2 1 0 3l-3 3-4 3-3 2q-4 0-6-3-2-2-2-5t2-5l3-3q6-5 10-11l8-11 3-4 5-1 5 1q2 1 2 5l-1 4-2 4h-3l28-2 1-4 3-5q3-3 7-3l5 2q3 1 3 5l-2 5q-2 3-4 2l38-2q7 0 7 7 0 6-7 6h-38v3h33l5 1q2 1 2 5 0 3-2 5l-5 1h-33v3h33l5 2q2 1 2 5 0 3-2 5l-5 1h-33v4h40l5 1q2 2 2 6 0 3-2 5l-5 1h-44v2h45l6 2q2 1 2 5 0 5-2 6l-6 1h-35q3 3 13 7l22 6 6 2q3 2 3 6 0 9-8 9-6 0-13-3l-14-6-13-8-6-4v16l-2 6q-1 3-6 3zm-30-95h27v-3h-27v3zm0 15h27v-3h-27v3zm2 17h25v-4h-27v2l1 1 1 1z"/></g></svg>